<mxfile host="app.diagrams.net" modified="2024-01-07T14:22:25.647Z" agent="Mozilla/5.0 (Windows NT 10.0; Win64; x64) AppleWebKit/537.36 (KHTML, like Gecko) Chrome/120.0.0.0 Safari/537.36 Edg/120.0.0.0" etag="u0WV8-wlx7fv2pv82Zah" version="22.1.17" type="device">
  <diagram id="9psBLqmak3lMU7G5c20V" name="Page-1">
    <mxGraphModel dx="1042" dy="569" grid="1" gridSize="10" guides="1" tooltips="1" connect="1" arrows="1" fold="1" page="0" pageScale="1" pageWidth="827" pageHeight="1169" math="1" shadow="0">
      <root>
        <mxCell id="0" />
        <mxCell id="1" parent="0" />
        <mxCell id="JvoWVqMFG1znGrLgwrE8-83" style="edgeStyle=orthogonalEdgeStyle;rounded=0;orthogonalLoop=1;jettySize=auto;html=1;exitX=0;exitY=0.5;exitDx=0;exitDy=0;entryX=0.922;entryY=1.007;entryDx=0;entryDy=0;startArrow=none;startFill=0;endArrow=classic;endFill=1;entryPerimeter=0;" parent="1" source="JvoWVqMFG1znGrLgwrE8-34" target="JvoWVqMFG1znGrLgwrE8-27" edge="1">
          <mxGeometry relative="1" as="geometry" />
        </mxCell>
        <mxCell id="JvoWVqMFG1znGrLgwrE8-34" value="" style="rounded=1;whiteSpace=wrap;html=1;strokeColor=#FF3333;dashed=1;strokeWidth=3;" parent="1" vertex="1">
          <mxGeometry x="910" y="350" width="140" height="90" as="geometry" />
        </mxCell>
        <mxCell id="JvoWVqMFG1znGrLgwrE8-53" style="edgeStyle=orthogonalEdgeStyle;rounded=0;orthogonalLoop=1;jettySize=auto;html=1;exitX=0.283;exitY=0.998;exitDx=0;exitDy=0;entryX=0.25;entryY=0;entryDx=0;entryDy=0;endArrow=classic;endFill=1;exitPerimeter=0;" parent="1" source="JvoWVqMFG1znGrLgwrE8-30" target="JvoWVqMFG1znGrLgwrE8-34" edge="1">
          <mxGeometry relative="1" as="geometry" />
        </mxCell>
        <mxCell id="JvoWVqMFG1znGrLgwrE8-54" style="edgeStyle=orthogonalEdgeStyle;rounded=0;orthogonalLoop=1;jettySize=auto;html=1;endArrow=classic;endFill=1;" parent="1" edge="1">
          <mxGeometry relative="1" as="geometry">
            <mxPoint x="960" y="320" as="sourcePoint" />
            <mxPoint x="960" y="350" as="targetPoint" />
            <Array as="points">
              <mxPoint x="960" y="330" />
              <mxPoint x="960" y="330" />
            </Array>
          </mxGeometry>
        </mxCell>
        <mxCell id="JvoWVqMFG1znGrLgwrE8-55" style="edgeStyle=orthogonalEdgeStyle;rounded=0;orthogonalLoop=1;jettySize=auto;html=1;exitX=0.75;exitY=1;exitDx=0;exitDy=0;entryX=0.787;entryY=0;entryDx=0;entryDy=0;entryPerimeter=0;endArrow=classic;endFill=1;" parent="1" source="JvoWVqMFG1znGrLgwrE8-30" target="JvoWVqMFG1znGrLgwrE8-34" edge="1">
          <mxGeometry relative="1" as="geometry" />
        </mxCell>
        <mxCell id="JvoWVqMFG1znGrLgwrE8-30" value="" style="rounded=1;whiteSpace=wrap;html=1;strokeColor=#FF3333;dashed=1;strokeWidth=3;" parent="1" vertex="1">
          <mxGeometry x="900" y="100" width="160" height="220" as="geometry" />
        </mxCell>
        <mxCell id="JvoWVqMFG1znGrLgwrE8-29" value="" style="rounded=1;whiteSpace=wrap;html=1;strokeColor=#FF3333;dashed=1;strokeWidth=3;" parent="1" vertex="1">
          <mxGeometry x="705" y="100" width="150" height="220" as="geometry" />
        </mxCell>
        <mxCell id="JvoWVqMFG1znGrLgwrE8-27" value="" style="rounded=1;whiteSpace=wrap;html=1;strokeColor=#FF3333;dashed=1;strokeWidth=3;" parent="1" vertex="1">
          <mxGeometry x="505" y="100" width="150" height="220" as="geometry" />
        </mxCell>
        <mxCell id="JvoWVqMFG1znGrLgwrE8-57" style="edgeStyle=orthogonalEdgeStyle;rounded=0;orthogonalLoop=1;jettySize=auto;html=1;exitX=1;exitY=0.5;exitDx=0;exitDy=0;endArrow=classic;endFill=1;" parent="1" source="JvoWVqMFG1znGrLgwrE8-3" target="JvoWVqMFG1znGrLgwrE8-8" edge="1">
          <mxGeometry relative="1" as="geometry" />
        </mxCell>
        <mxCell id="JvoWVqMFG1znGrLgwrE8-3" value="" style="rounded=0;whiteSpace=wrap;html=1;" parent="1" vertex="1">
          <mxGeometry x="520" y="130" width="120" height="30" as="geometry" />
        </mxCell>
        <mxCell id="JvoWVqMFG1znGrLgwrE8-63" style="edgeStyle=orthogonalEdgeStyle;rounded=0;orthogonalLoop=1;jettySize=auto;html=1;exitX=1;exitY=0.5;exitDx=0;exitDy=0;entryX=0;entryY=0.5;entryDx=0;entryDy=0;endArrow=classic;endFill=1;" parent="1" source="JvoWVqMFG1znGrLgwrE8-8" target="JvoWVqMFG1znGrLgwrE8-9" edge="1">
          <mxGeometry relative="1" as="geometry" />
        </mxCell>
        <mxCell id="JvoWVqMFG1znGrLgwrE8-8" value="" style="rounded=0;whiteSpace=wrap;html=1;" parent="1" vertex="1">
          <mxGeometry x="720" y="130" width="120" height="30" as="geometry" />
        </mxCell>
        <mxCell id="JvoWVqMFG1znGrLgwrE8-9" value="" style="rounded=0;whiteSpace=wrap;html=1;" parent="1" vertex="1">
          <mxGeometry x="920" y="130" width="120" height="30" as="geometry" />
        </mxCell>
        <mxCell id="JvoWVqMFG1znGrLgwrE8-58" style="edgeStyle=orthogonalEdgeStyle;rounded=0;orthogonalLoop=1;jettySize=auto;html=1;exitX=1;exitY=0.5;exitDx=0;exitDy=0;endArrow=classic;endFill=1;" parent="1" source="JvoWVqMFG1znGrLgwrE8-10" target="JvoWVqMFG1znGrLgwrE8-11" edge="1">
          <mxGeometry relative="1" as="geometry" />
        </mxCell>
        <mxCell id="JvoWVqMFG1znGrLgwrE8-10" value="" style="rounded=0;whiteSpace=wrap;html=1;" parent="1" vertex="1">
          <mxGeometry x="520" y="180" width="120" height="30" as="geometry" />
        </mxCell>
        <mxCell id="JvoWVqMFG1znGrLgwrE8-64" style="edgeStyle=orthogonalEdgeStyle;rounded=0;orthogonalLoop=1;jettySize=auto;html=1;exitX=1;exitY=0.5;exitDx=0;exitDy=0;entryX=0;entryY=0.5;entryDx=0;entryDy=0;endArrow=classic;endFill=1;" parent="1" source="JvoWVqMFG1znGrLgwrE8-11" target="JvoWVqMFG1znGrLgwrE8-12" edge="1">
          <mxGeometry relative="1" as="geometry" />
        </mxCell>
        <mxCell id="JvoWVqMFG1znGrLgwrE8-11" value="" style="rounded=0;whiteSpace=wrap;html=1;" parent="1" vertex="1">
          <mxGeometry x="720" y="180" width="120" height="30" as="geometry" />
        </mxCell>
        <mxCell id="JvoWVqMFG1znGrLgwrE8-12" value="" style="rounded=0;whiteSpace=wrap;html=1;" parent="1" vertex="1">
          <mxGeometry x="920" y="180" width="120" height="30" as="geometry" />
        </mxCell>
        <mxCell id="JvoWVqMFG1znGrLgwrE8-59" style="edgeStyle=orthogonalEdgeStyle;rounded=0;orthogonalLoop=1;jettySize=auto;html=1;exitX=1;exitY=0.5;exitDx=0;exitDy=0;entryX=0;entryY=0.5;entryDx=0;entryDy=0;endArrow=classic;endFill=1;" parent="1" source="JvoWVqMFG1znGrLgwrE8-13" target="JvoWVqMFG1znGrLgwrE8-14" edge="1">
          <mxGeometry relative="1" as="geometry" />
        </mxCell>
        <mxCell id="JvoWVqMFG1znGrLgwrE8-13" value="" style="rounded=0;whiteSpace=wrap;html=1;" parent="1" vertex="1">
          <mxGeometry x="520" y="260" width="120" height="30" as="geometry" />
        </mxCell>
        <mxCell id="JvoWVqMFG1znGrLgwrE8-65" style="edgeStyle=orthogonalEdgeStyle;rounded=0;orthogonalLoop=1;jettySize=auto;html=1;exitX=1;exitY=0.5;exitDx=0;exitDy=0;endArrow=classic;endFill=1;" parent="1" source="JvoWVqMFG1znGrLgwrE8-14" target="JvoWVqMFG1znGrLgwrE8-15" edge="1">
          <mxGeometry relative="1" as="geometry" />
        </mxCell>
        <mxCell id="JvoWVqMFG1znGrLgwrE8-14" value="" style="rounded=0;whiteSpace=wrap;html=1;" parent="1" vertex="1">
          <mxGeometry x="720" y="260" width="120" height="30" as="geometry" />
        </mxCell>
        <mxCell id="JvoWVqMFG1znGrLgwrE8-15" value="" style="rounded=0;whiteSpace=wrap;html=1;" parent="1" vertex="1">
          <mxGeometry x="920" y="260" width="120" height="30" as="geometry" />
        </mxCell>
        <mxCell id="JvoWVqMFG1znGrLgwrE8-16" value="" style="rounded=0;whiteSpace=wrap;html=1;" parent="1" vertex="1">
          <mxGeometry x="920" y="370" width="120" height="50" as="geometry" />
        </mxCell>
        <mxCell id="JvoWVqMFG1znGrLgwrE8-82" style="edgeStyle=orthogonalEdgeStyle;rounded=0;orthogonalLoop=1;jettySize=auto;html=1;exitX=1;exitY=0.5;exitDx=0;exitDy=0;entryX=0.162;entryY=-0.011;entryDx=0;entryDy=0;entryPerimeter=0;startArrow=none;startFill=0;endArrow=classic;endFill=1;" parent="1" source="JvoWVqMFG1znGrLgwrE8-26" target="JvoWVqMFG1znGrLgwrE8-27" edge="1">
          <mxGeometry relative="1" as="geometry" />
        </mxCell>
        <mxCell id="JvoWVqMFG1znGrLgwrE8-26" value="" style="rounded=0;whiteSpace=wrap;html=1;" parent="1" vertex="1">
          <mxGeometry x="290" y="50" width="160" height="30" as="geometry" />
        </mxCell>
        <mxCell id="JvoWVqMFG1znGrLgwrE8-17" style="edgeStyle=orthogonalEdgeStyle;rounded=0;orthogonalLoop=1;jettySize=auto;html=1;exitX=0.5;exitY=0;exitDx=0;exitDy=0;entryX=0.5;entryY=1;entryDx=0;entryDy=0;endArrow=none;endFill=0;" parent="1" source="JvoWVqMFG1znGrLgwrE8-9" target="JvoWVqMFG1znGrLgwrE8-9" edge="1">
          <mxGeometry relative="1" as="geometry" />
        </mxCell>
        <mxCell id="JvoWVqMFG1znGrLgwrE8-18" style="edgeStyle=orthogonalEdgeStyle;rounded=0;orthogonalLoop=1;jettySize=auto;html=1;exitX=0.5;exitY=0;exitDx=0;exitDy=0;entryX=0.5;entryY=1;entryDx=0;entryDy=0;endArrow=none;endFill=0;" parent="1" source="JvoWVqMFG1znGrLgwrE8-12" target="JvoWVqMFG1znGrLgwrE8-12" edge="1">
          <mxGeometry relative="1" as="geometry" />
        </mxCell>
        <mxCell id="JvoWVqMFG1znGrLgwrE8-19" style="edgeStyle=orthogonalEdgeStyle;rounded=0;orthogonalLoop=1;jettySize=auto;html=1;exitX=0.5;exitY=0;exitDx=0;exitDy=0;endArrow=none;endFill=0;" parent="1" source="JvoWVqMFG1znGrLgwrE8-15" edge="1">
          <mxGeometry relative="1" as="geometry">
            <mxPoint x="980" y="290" as="targetPoint" />
          </mxGeometry>
        </mxCell>
        <mxCell id="JvoWVqMFG1znGrLgwrE8-24" value="&lt;font face=&quot;Times New Roman&quot;&gt;&lt;span style=&quot;font-size: 18px&quot;&gt;$$\mbox{Swarm}$$&lt;br&gt;&lt;/span&gt;&lt;/font&gt;" style="text;html=1;align=center;verticalAlign=middle;whiteSpace=wrap;rounded=0;" parent="1" vertex="1">
          <mxGeometry x="545" y="80" width="70" height="20" as="geometry" />
        </mxCell>
        <mxCell id="JvoWVqMFG1znGrLgwrE8-25" value="&lt;font face=&quot;Times New Roman&quot;&gt;&lt;span style=&quot;font-size: 18px&quot;&gt;$$w$$&lt;/span&gt;&lt;/font&gt;" style="text;html=1;strokeColor=none;fillColor=none;align=center;verticalAlign=middle;whiteSpace=wrap;rounded=0;" parent="1" vertex="1">
          <mxGeometry x="590" y="330" width="40" height="20" as="geometry" />
        </mxCell>
        <mxCell id="JvoWVqMFG1znGrLgwrE8-31" style="edgeStyle=orthogonalEdgeStyle;rounded=0;orthogonalLoop=1;jettySize=auto;html=1;exitX=0.25;exitY=0;exitDx=0;exitDy=0;entryX=0.25;entryY=1;entryDx=0;entryDy=0;endArrow=none;endFill=0;" parent="1" source="JvoWVqMFG1znGrLgwrE8-16" target="JvoWVqMFG1znGrLgwrE8-16" edge="1">
          <mxGeometry relative="1" as="geometry">
            <Array as="points">
              <mxPoint x="950" y="400" />
              <mxPoint x="950" y="400" />
            </Array>
          </mxGeometry>
        </mxCell>
        <mxCell id="JvoWVqMFG1znGrLgwrE8-32" value="&lt;font face=&quot;Times New Roman&quot;&gt;&lt;span style=&quot;font-size: 18px&quot;&gt;$$\mbox{Evaluation}$$&lt;/span&gt;&lt;/font&gt;" style="text;html=1;align=center;verticalAlign=middle;whiteSpace=wrap;rounded=0;" parent="1" vertex="1">
          <mxGeometry x="732.5" y="70" width="95" height="20" as="geometry" />
        </mxCell>
        <mxCell id="JvoWVqMFG1znGrLgwrE8-33" value="&lt;font face=&quot;Times New Roman&quot;&gt;&lt;span style=&quot;font-size: 18px&quot;&gt;$$\mbox{Individual Best}$$&lt;/span&gt;&lt;/font&gt;" style="text;html=1;align=center;verticalAlign=middle;whiteSpace=wrap;rounded=0;" parent="1" vertex="1">
          <mxGeometry x="911.25" y="70" width="137.5" height="20" as="geometry" />
        </mxCell>
        <mxCell id="JvoWVqMFG1znGrLgwrE8-35" value="&lt;font face=&quot;Times New Roman&quot;&gt;&lt;span style=&quot;font-size: 18px&quot;&gt;$$\mbox{Global Best}$$&lt;/span&gt;&lt;/font&gt;" style="text;html=1;align=center;verticalAlign=middle;whiteSpace=wrap;rounded=0;" parent="1" vertex="1">
          <mxGeometry x="911.25" y="450" width="137.5" height="20" as="geometry" />
        </mxCell>
        <mxCell id="JvoWVqMFG1znGrLgwrE8-36" value="&lt;font face=&quot;Times New Roman&quot;&gt;&lt;span style=&quot;font-size: 18px&quot;&gt;$$\mbox{Particle 1}$$&lt;/span&gt;&lt;/font&gt;" style="text;html=1;align=center;verticalAlign=middle;whiteSpace=wrap;rounded=0;rotation=0;" parent="1" vertex="1">
          <mxGeometry x="537.5" y="135" width="85" height="20" as="geometry" />
        </mxCell>
        <mxCell id="JvoWVqMFG1znGrLgwrE8-37" value="&lt;font face=&quot;Times New Roman&quot;&gt;&lt;span style=&quot;font-size: 18px&quot;&gt;RAM&lt;/span&gt;&lt;/font&gt;" style="text;html=1;align=center;verticalAlign=middle;whiteSpace=wrap;rounded=0;rotation=-90;" parent="1" vertex="1">
          <mxGeometry x="910" y="385" width="55" height="20" as="geometry" />
        </mxCell>
        <mxCell id="JvoWVqMFG1znGrLgwrE8-38" value="&lt;font face=&quot;Times New Roman&quot;&gt;&lt;span style=&quot;font-size: 18px&quot;&gt;$$\mbox{RAM}$$&lt;/span&gt;&lt;/font&gt;" style="text;html=1;align=center;verticalAlign=middle;whiteSpace=wrap;rounded=0;rotation=0;" parent="1" vertex="1">
          <mxGeometry x="980" y="135" width="55" height="20" as="geometry" />
        </mxCell>
        <mxCell id="JvoWVqMFG1znGrLgwrE8-41" value="&lt;font face=&quot;Times New Roman&quot; style=&quot;font-size: 30px&quot;&gt;&lt;b&gt;...&lt;/b&gt;&lt;/font&gt;" style="text;html=1;align=center;verticalAlign=middle;whiteSpace=wrap;rounded=0;rotation=0;" parent="1" vertex="1">
          <mxGeometry x="967.5" y="330" width="40" as="geometry" />
        </mxCell>
        <mxCell id="JvoWVqMFG1znGrLgwrE8-44" value="&lt;font face=&quot;Times New Roman&quot; style=&quot;font-size: 30px&quot;&gt;&lt;b&gt;...&lt;/b&gt;&lt;/font&gt;" style="text;html=1;align=center;verticalAlign=middle;whiteSpace=wrap;rounded=0;rotation=90;" parent="1" vertex="1">
          <mxGeometry x="560" y="230" width="55" height="10" as="geometry" />
        </mxCell>
        <mxCell id="JvoWVqMFG1znGrLgwrE8-46" value="&lt;font face=&quot;Times New Roman&quot; style=&quot;font-size: 30px&quot;&gt;&lt;b&gt;...&lt;/b&gt;&lt;/font&gt;" style="text;html=1;align=center;verticalAlign=middle;whiteSpace=wrap;rounded=0;rotation=90;" parent="1" vertex="1">
          <mxGeometry x="760" y="230" width="55" height="10" as="geometry" />
        </mxCell>
        <mxCell id="JvoWVqMFG1znGrLgwrE8-47" value="&lt;font face=&quot;Times New Roman&quot; style=&quot;font-size: 30px&quot;&gt;&lt;b&gt;...&lt;/b&gt;&lt;/font&gt;" style="text;html=1;align=center;verticalAlign=middle;whiteSpace=wrap;rounded=0;rotation=90;" parent="1" vertex="1">
          <mxGeometry x="960" y="230" width="55" height="10" as="geometry" />
        </mxCell>
        <mxCell id="JvoWVqMFG1znGrLgwrE8-50" value="&lt;font face=&quot;Times New Roman&quot;&gt;&lt;span style=&quot;font-size: 18px&quot;&gt;$$\mbox{Initial Conditions}$$&lt;/span&gt;&lt;/font&gt;" style="text;html=1;align=center;verticalAlign=middle;whiteSpace=wrap;rounded=0;rotation=0;" parent="1" vertex="1">
          <mxGeometry x="302.5" y="55" width="135" height="20" as="geometry" />
        </mxCell>
        <mxCell id="JvoWVqMFG1znGrLgwrE8-69" style="edgeStyle=orthogonalEdgeStyle;rounded=0;orthogonalLoop=1;jettySize=auto;html=1;exitX=0;exitY=0.75;exitDx=0;exitDy=0;entryX=0;entryY=0.25;entryDx=0;entryDy=0;endArrow=classic;endFill=1;" parent="1" source="JvoWVqMFG1znGrLgwrE8-52" target="JvoWVqMFG1znGrLgwrE8-3" edge="1">
          <mxGeometry relative="1" as="geometry">
            <Array as="points">
              <mxPoint x="528" y="460" />
              <mxPoint x="370" y="460" />
              <mxPoint x="370" y="138" />
            </Array>
          </mxGeometry>
        </mxCell>
        <mxCell id="JvoWVqMFG1znGrLgwrE8-72" style="edgeStyle=orthogonalEdgeStyle;rounded=0;orthogonalLoop=1;jettySize=auto;html=1;exitX=0.01;exitY=0.591;exitDx=0;exitDy=0;entryX=0;entryY=0.25;entryDx=0;entryDy=0;endArrow=classic;endFill=1;exitPerimeter=0;" parent="1" source="JvoWVqMFG1znGrLgwrE8-52" target="JvoWVqMFG1znGrLgwrE8-10" edge="1">
          <mxGeometry relative="1" as="geometry">
            <Array as="points">
              <mxPoint x="528" y="440" />
              <mxPoint x="410" y="440" />
              <mxPoint x="410" y="188" />
            </Array>
          </mxGeometry>
        </mxCell>
        <mxCell id="JvoWVqMFG1znGrLgwrE8-73" style="edgeStyle=orthogonalEdgeStyle;rounded=0;orthogonalLoop=1;jettySize=auto;html=1;exitX=0;exitY=0.25;exitDx=0;exitDy=0;entryX=0;entryY=0.25;entryDx=0;entryDy=0;endArrow=classic;endFill=1;" parent="1" source="JvoWVqMFG1znGrLgwrE8-52" target="JvoWVqMFG1znGrLgwrE8-13" edge="1">
          <mxGeometry relative="1" as="geometry">
            <Array as="points">
              <mxPoint x="450" y="393" />
              <mxPoint x="450" y="268" />
            </Array>
          </mxGeometry>
        </mxCell>
        <mxCell id="JvoWVqMFG1znGrLgwrE8-90" style="edgeStyle=orthogonalEdgeStyle;rounded=0;orthogonalLoop=1;jettySize=auto;html=1;exitX=0.341;exitY=0.001;exitDx=0;exitDy=0;entryX=0.361;entryY=0.995;entryDx=0;entryDy=0;entryPerimeter=0;startArrow=none;startFill=0;endArrow=classic;endFill=1;exitPerimeter=0;" parent="1" source="JvoWVqMFG1znGrLgwrE8-52" target="JvoWVqMFG1znGrLgwrE8-27" edge="1">
          <mxGeometry relative="1" as="geometry">
            <Array as="points" />
          </mxGeometry>
        </mxCell>
        <mxCell id="D51-dITr0-ILp-udTU6N-4" style="edgeStyle=orthogonalEdgeStyle;rounded=0;orthogonalLoop=1;jettySize=auto;html=1;exitX=0.75;exitY=0;exitDx=0;exitDy=0;" parent="1" source="JvoWVqMFG1znGrLgwrE8-52" edge="1">
          <mxGeometry relative="1" as="geometry">
            <mxPoint x="597" y="320" as="targetPoint" />
            <Array as="points">
              <mxPoint x="597" y="340" />
              <mxPoint x="597" y="340" />
              <mxPoint x="597" y="320" />
            </Array>
          </mxGeometry>
        </mxCell>
        <mxCell id="JvoWVqMFG1znGrLgwrE8-52" value="" style="rounded=0;whiteSpace=wrap;html=1;" parent="1" vertex="1">
          <mxGeometry x="527.5" y="360" width="92.5" height="130" as="geometry" />
        </mxCell>
        <mxCell id="JvoWVqMFG1znGrLgwrE8-56" value="&lt;font face=&quot;Times New Roman&quot;&gt;&lt;span style=&quot;font-size: 18px&quot;&gt;$$\mbox{Minimum}$$&lt;/span&gt;&lt;/font&gt;" style="text;html=1;align=center;verticalAlign=middle;whiteSpace=wrap;rounded=0;rotation=0;" parent="1" vertex="1">
          <mxGeometry x="947.5" y="385" width="87.5" height="20" as="geometry" />
        </mxCell>
        <mxCell id="JvoWVqMFG1znGrLgwrE8-60" style="edgeStyle=orthogonalEdgeStyle;rounded=0;orthogonalLoop=1;jettySize=auto;html=1;exitX=1;exitY=0.5;exitDx=0;exitDy=0;entryX=0;entryY=0.25;entryDx=0;entryDy=0;endArrow=classic;endFill=1;" parent="1" source="JvoWVqMFG1znGrLgwrE8-9" target="JvoWVqMFG1znGrLgwrE8-9" edge="1">
          <mxGeometry relative="1" as="geometry">
            <Array as="points">
              <mxPoint x="1050" y="145" />
              <mxPoint x="1050" y="120" />
              <mxPoint x="910" y="120" />
              <mxPoint x="910" y="138" />
            </Array>
          </mxGeometry>
        </mxCell>
        <mxCell id="JvoWVqMFG1znGrLgwrE8-61" style="edgeStyle=orthogonalEdgeStyle;rounded=0;orthogonalLoop=1;jettySize=auto;html=1;exitX=1;exitY=0.5;exitDx=0;exitDy=0;entryX=0;entryY=0.25;entryDx=0;entryDy=0;endArrow=classic;endFill=1;" parent="1" edge="1">
          <mxGeometry relative="1" as="geometry">
            <mxPoint x="1040" y="195" as="sourcePoint" />
            <mxPoint x="920" y="187.5" as="targetPoint" />
            <Array as="points">
              <mxPoint x="1050" y="195" />
              <mxPoint x="1050" y="170" />
              <mxPoint x="910" y="170" />
              <mxPoint x="910" y="188" />
            </Array>
          </mxGeometry>
        </mxCell>
        <mxCell id="JvoWVqMFG1znGrLgwrE8-62" style="edgeStyle=orthogonalEdgeStyle;rounded=0;orthogonalLoop=1;jettySize=auto;html=1;exitX=1;exitY=0.5;exitDx=0;exitDy=0;entryX=0;entryY=0.25;entryDx=0;entryDy=0;endArrow=classic;endFill=1;" parent="1" edge="1">
          <mxGeometry relative="1" as="geometry">
            <mxPoint x="1040" y="275" as="sourcePoint" />
            <mxPoint x="920" y="267.5" as="targetPoint" />
            <Array as="points">
              <mxPoint x="1050" y="275" />
              <mxPoint x="1050" y="250" />
              <mxPoint x="910" y="250" />
              <mxPoint x="910" y="268" />
            </Array>
          </mxGeometry>
        </mxCell>
        <mxCell id="JvoWVqMFG1znGrLgwrE8-66" value="&lt;font face=&quot;Times New Roman&quot;&gt;&lt;span style=&quot;font-size: 18px&quot;&gt;$$\mbox{FSM}$$&lt;/span&gt;&lt;/font&gt;" style="text;html=1;align=center;verticalAlign=middle;whiteSpace=wrap;rounded=0;rotation=0;" parent="1" vertex="1">
          <mxGeometry x="555" y="470" width="37.5" height="15" as="geometry" />
        </mxCell>
        <mxCell id="JvoWVqMFG1znGrLgwrE8-77" style="edgeStyle=orthogonalEdgeStyle;rounded=0;orthogonalLoop=1;jettySize=auto;html=1;entryX=0;entryY=0.75;entryDx=0;entryDy=0;endArrow=classic;endFill=1;startArrow=oval;startFill=1;" parent="1" target="JvoWVqMFG1znGrLgwrE8-3" edge="1">
          <mxGeometry relative="1" as="geometry">
            <mxPoint x="540" y="450" as="sourcePoint" />
            <Array as="points">
              <mxPoint x="540" y="450" />
              <mxPoint x="390" y="450" />
              <mxPoint x="390" y="153" />
            </Array>
          </mxGeometry>
        </mxCell>
        <mxCell id="JvoWVqMFG1znGrLgwrE8-78" style="edgeStyle=orthogonalEdgeStyle;rounded=0;orthogonalLoop=1;jettySize=auto;html=1;entryX=0;entryY=0.75;entryDx=0;entryDy=0;endArrow=classic;endFill=1;startArrow=oval;startFill=1;" parent="1" target="JvoWVqMFG1znGrLgwrE8-10" edge="1">
          <mxGeometry relative="1" as="geometry">
            <mxPoint x="540" y="430" as="sourcePoint" />
            <Array as="points">
              <mxPoint x="540" y="430" />
              <mxPoint x="430" y="430" />
              <mxPoint x="430" y="203" />
            </Array>
          </mxGeometry>
        </mxCell>
        <mxCell id="JvoWVqMFG1znGrLgwrE8-80" style="edgeStyle=orthogonalEdgeStyle;rounded=0;orthogonalLoop=1;jettySize=auto;html=1;entryX=0;entryY=0.75;entryDx=0;entryDy=0;endArrow=classic;endFill=1;startArrow=oval;startFill=1;" parent="1" target="JvoWVqMFG1znGrLgwrE8-13" edge="1">
          <mxGeometry relative="1" as="geometry">
            <mxPoint x="540" y="380" as="sourcePoint" />
            <Array as="points">
              <mxPoint x="540" y="380" />
              <mxPoint x="470" y="380" />
              <mxPoint x="470" y="283" />
            </Array>
          </mxGeometry>
        </mxCell>
        <mxCell id="JvoWVqMFG1znGrLgwrE8-84" value="&lt;font face=&quot;Times New Roman&quot;&gt;&lt;span style=&quot;font-size: 18px&quot;&gt;$$\mbox{Best Result}$$&lt;/span&gt;&lt;/font&gt;" style="text;html=1;align=center;verticalAlign=middle;whiteSpace=wrap;rounded=0;rotation=0;" parent="1" vertex="1">
          <mxGeometry x="720" y="370" width="87.5" height="20" as="geometry" />
        </mxCell>
        <mxCell id="JvoWVqMFG1znGrLgwrE8-86" value="&lt;font face=&quot;Times New Roman&quot;&gt;&lt;span style=&quot;font-size: 18px&quot;&gt;$$\mbox{RAM}$$&lt;/span&gt;&lt;/font&gt;" style="text;html=1;align=center;verticalAlign=middle;whiteSpace=wrap;rounded=0;rotation=0;" parent="1" vertex="1">
          <mxGeometry x="980" y="185" width="55" height="20" as="geometry" />
        </mxCell>
        <mxCell id="JvoWVqMFG1znGrLgwrE8-87" value="&lt;font face=&quot;Times New Roman&quot;&gt;&lt;span style=&quot;font-size: 18px&quot;&gt;$$\mbox{RAM}$$&lt;/span&gt;&lt;/font&gt;" style="text;html=1;align=center;verticalAlign=middle;whiteSpace=wrap;rounded=0;rotation=0;" parent="1" vertex="1">
          <mxGeometry x="980" y="265" width="55" height="20" as="geometry" />
        </mxCell>
        <mxCell id="JvoWVqMFG1znGrLgwrE8-88" value="&lt;font face=&quot;Times New Roman&quot;&gt;&lt;span style=&quot;font-size: 18px&quot;&gt;$$\mbox{Particle 2}$$&lt;/span&gt;&lt;/font&gt;" style="text;html=1;align=center;verticalAlign=middle;whiteSpace=wrap;rounded=0;rotation=0;" parent="1" vertex="1">
          <mxGeometry x="537.5" y="185" width="85" height="20" as="geometry" />
        </mxCell>
        <mxCell id="JvoWVqMFG1znGrLgwrE8-89" value="&lt;font face=&quot;Times New Roman&quot;&gt;&lt;span style=&quot;font-size: 18px&quot;&gt;$$\mbox{Particle} \ N$$&lt;/span&gt;&lt;/font&gt;" style="text;html=1;align=center;verticalAlign=middle;whiteSpace=wrap;rounded=0;rotation=0;" parent="1" vertex="1">
          <mxGeometry x="537.5" y="265" width="85" height="20" as="geometry" />
        </mxCell>
        <mxCell id="JvoWVqMFG1znGrLgwrE8-93" value="&lt;font face=&quot;Times New Roman&quot;&gt;&lt;span style=&quot;font-size: 18px&quot;&gt;$$v_{i}(j)$$&lt;/span&gt;&lt;/font&gt;" style="text;html=1;strokeColor=none;fillColor=none;align=center;verticalAlign=middle;whiteSpace=wrap;rounded=0;" parent="1" vertex="1">
          <mxGeometry x="510" y="330" width="35" height="20" as="geometry" />
        </mxCell>
        <mxCell id="JvoWVqMFG1znGrLgwrE8-94" value="&lt;font face=&quot;Times New Roman&quot;&gt;&lt;span style=&quot;font-size: 18px&quot;&gt;$$p_{gbest}$$&lt;/span&gt;&lt;/font&gt;" style="text;html=1;strokeColor=none;fillColor=none;align=center;verticalAlign=middle;whiteSpace=wrap;rounded=0;" parent="1" vertex="1">
          <mxGeometry x="650" y="330" width="40" height="20" as="geometry" />
        </mxCell>
        <mxCell id="JvoWVqMFG1znGrLgwrE8-95" value="&lt;font face=&quot;Times New Roman&quot;&gt;&lt;span style=&quot;font-size: 18px&quot;&gt;$$\leq p_{1}$$&lt;/span&gt;&lt;/font&gt;" style="text;html=1;strokeColor=none;fillColor=none;align=center;verticalAlign=middle;whiteSpace=wrap;rounded=0;" parent="1" vertex="1">
          <mxGeometry x="927.5" y="135" width="40" height="20" as="geometry" />
        </mxCell>
        <mxCell id="JvoWVqMFG1znGrLgwrE8-96" value="&lt;font face=&quot;Times New Roman&quot;&gt;&lt;span style=&quot;font-size: 18px&quot;&gt;$$\leq p_{2}$$&lt;/span&gt;&lt;/font&gt;" style="text;html=1;strokeColor=none;fillColor=none;align=center;verticalAlign=middle;whiteSpace=wrap;rounded=0;" parent="1" vertex="1">
          <mxGeometry x="927.5" y="185" width="40" height="20" as="geometry" />
        </mxCell>
        <mxCell id="JvoWVqMFG1znGrLgwrE8-97" value="&lt;font face=&quot;Times New Roman&quot;&gt;&lt;span style=&quot;font-size: 18px&quot;&gt;$$\leq p_{N}$$&lt;/span&gt;&lt;/font&gt;" style="text;html=1;strokeColor=none;fillColor=none;align=center;verticalAlign=middle;whiteSpace=wrap;rounded=0;" parent="1" vertex="1">
          <mxGeometry x="927.5" y="265" width="40" height="20" as="geometry" />
        </mxCell>
        <mxCell id="JvoWVqMFG1znGrLgwrE8-100" value="&lt;font face=&quot;Times New Roman&quot;&gt;&lt;span style=&quot;font-size: 18px&quot;&gt;$$f(p_{1}(j))$$&lt;/span&gt;&lt;/font&gt;" style="text;html=1;strokeColor=none;fillColor=none;align=center;verticalAlign=middle;whiteSpace=wrap;rounded=0;" parent="1" vertex="1">
          <mxGeometry x="760" y="135" width="40" height="20" as="geometry" />
        </mxCell>
        <mxCell id="JvoWVqMFG1znGrLgwrE8-101" value="&lt;font face=&quot;Times New Roman&quot;&gt;&lt;span style=&quot;font-size: 18px&quot;&gt;$$f(p_{2}(j))$$&lt;/span&gt;&lt;/font&gt;" style="text;html=1;strokeColor=none;fillColor=none;align=center;verticalAlign=middle;whiteSpace=wrap;rounded=0;" parent="1" vertex="1">
          <mxGeometry x="760" y="185" width="40" height="20" as="geometry" />
        </mxCell>
        <mxCell id="JvoWVqMFG1znGrLgwrE8-102" style="edgeStyle=orthogonalEdgeStyle;rounded=0;orthogonalLoop=1;jettySize=auto;html=1;exitX=0.5;exitY=1;exitDx=0;exitDy=0;startArrow=none;startFill=0;endArrow=classic;endFill=1;" parent="1" source="JvoWVqMFG1znGrLgwrE8-100" target="JvoWVqMFG1znGrLgwrE8-100" edge="1">
          <mxGeometry relative="1" as="geometry" />
        </mxCell>
        <mxCell id="JvoWVqMFG1znGrLgwrE8-103" value="&lt;font face=&quot;Times New Roman&quot;&gt;&lt;span style=&quot;font-size: 18px&quot;&gt;$$f(p_{N}(j))$$&lt;/span&gt;&lt;/font&gt;" style="text;html=1;strokeColor=none;fillColor=none;align=center;verticalAlign=middle;whiteSpace=wrap;rounded=0;" parent="1" vertex="1">
          <mxGeometry x="760" y="265" width="40" height="20" as="geometry" />
        </mxCell>
        <mxCell id="JvoWVqMFG1znGrLgwrE8-104" value="&lt;font face=&quot;Times New Roman&quot;&gt;&lt;span style=&quot;font-size: 18px&quot;&gt;$$p_{1}(j)$$&lt;/span&gt;&lt;/font&gt;" style="text;html=1;strokeColor=none;fillColor=none;align=center;verticalAlign=middle;whiteSpace=wrap;rounded=0;" parent="1" vertex="1">
          <mxGeometry x="450" y="115" width="40" height="20" as="geometry" />
        </mxCell>
        <mxCell id="JvoWVqMFG1znGrLgwrE8-105" value="&lt;font face=&quot;Times New Roman&quot; style=&quot;font-size: 18px&quot;&gt;$$p_{1lbest}$$&lt;/font&gt;" style="text;html=1;strokeColor=none;fillColor=none;align=center;verticalAlign=middle;whiteSpace=wrap;rounded=0;" parent="1" vertex="1">
          <mxGeometry x="540" y="440" width="65" height="20" as="geometry" />
        </mxCell>
        <mxCell id="JvoWVqMFG1znGrLgwrE8-106" value="&lt;font face=&quot;Times New Roman&quot;&gt;&lt;span style=&quot;font-size: 18px&quot;&gt;$$f(p_{Nlbest})$$&lt;/span&gt;&lt;/font&gt;" style="text;html=1;strokeColor=none;fillColor=none;align=center;verticalAlign=middle;whiteSpace=wrap;rounded=0;" parent="1" vertex="1">
          <mxGeometry x="1020" y="330" width="135" height="20" as="geometry" />
        </mxCell>
        <mxCell id="JvoWVqMFG1znGrLgwrE8-107" value="&lt;font face=&quot;Times New Roman&quot;&gt;&lt;span style=&quot;font-size: 18px&quot;&gt;$$p_{2}(j)$$&lt;/span&gt;&lt;/font&gt;" style="text;html=1;strokeColor=none;fillColor=none;align=center;verticalAlign=middle;whiteSpace=wrap;rounded=0;" parent="1" vertex="1">
          <mxGeometry x="450" y="160" width="40" height="20" as="geometry" />
        </mxCell>
        <mxCell id="JvoWVqMFG1znGrLgwrE8-108" value="&lt;font face=&quot;Times New Roman&quot;&gt;&lt;span style=&quot;font-size: 18px&quot;&gt;$$p_{N}(j)$$&lt;/span&gt;&lt;/font&gt;" style="text;html=1;strokeColor=none;fillColor=none;align=center;verticalAlign=middle;whiteSpace=wrap;rounded=0;" parent="1" vertex="1">
          <mxGeometry x="450" y="240" width="40" height="20" as="geometry" />
        </mxCell>
        <mxCell id="JvoWVqMFG1znGrLgwrE8-110" value="&lt;font face=&quot;Times New Roman&quot;&gt;&lt;span style=&quot;font-size: 18px&quot;&gt;$$f(p_{1lbest})$$&lt;/span&gt;&lt;/font&gt;" style="text;html=1;strokeColor=none;fillColor=none;align=center;verticalAlign=middle;whiteSpace=wrap;rounded=0;" parent="1" vertex="1">
          <mxGeometry x="812.5" y="330" width="135" height="20" as="geometry" />
        </mxCell>
        <mxCell id="JvoWVqMFG1znGrLgwrE8-111" value="&lt;font face=&quot;Times New Roman&quot; style=&quot;font-size: 18px&quot;&gt;$$p_{2lbest}$$&lt;/font&gt;" style="text;html=1;strokeColor=none;fillColor=none;align=center;verticalAlign=middle;whiteSpace=wrap;rounded=0;" parent="1" vertex="1">
          <mxGeometry x="540" y="420" width="65" height="20" as="geometry" />
        </mxCell>
        <mxCell id="JvoWVqMFG1znGrLgwrE8-112" value="&lt;font face=&quot;Times New Roman&quot; style=&quot;font-size: 18px&quot;&gt;$$p_{Nlbest}$$&lt;/font&gt;" style="text;html=1;strokeColor=none;fillColor=none;align=center;verticalAlign=middle;whiteSpace=wrap;rounded=0;" parent="1" vertex="1">
          <mxGeometry x="540" y="370" width="62.5" height="20" as="geometry" />
        </mxCell>
        <mxCell id="xokcDiJCDrU0o3B-hNvp-2" value="&lt;font face=&quot;Times New Roman&quot; size=&quot;1&quot;&gt;&lt;b style=&quot;font-size: 18px&quot;&gt;...&lt;/b&gt;&lt;/font&gt;" style="text;html=1;align=center;verticalAlign=middle;whiteSpace=wrap;rounded=0;rotation=90;" parent="1" vertex="1">
          <mxGeometry x="545" y="405" width="40" height="10" as="geometry" />
        </mxCell>
      </root>
    </mxGraphModel>
  </diagram>
</mxfile>
